# Blender 5.1.2
# www.blender.org
mtllib Untitled.mtl
o SK_Extnd04_Object_04004
v 0.079375 -0.079375 2.389434 1.0000 1.0000 1.0000
v 0.079375 -0.079375 0.000000 1.0000 1.0000 1.0000
v 0.238125 -0.079375 2.389434 1.0000 1.0000 1.0000
v 0.238125 -0.079375 0.000000 1.0000 1.0000 1.0000
v 0.079375 -0.079375 2.389434 1.0000 1.0000 1.0000
v 0.079375 0.079375 0.000000 1.0000 1.0000 1.0000
v 0.079375 -0.079375 0.000000 1.0000 1.0000 1.0000
v 0.079375 0.079375 2.389434 1.0000 1.0000 1.0000
v 0.079375 0.079375 0.000000 1.0000 1.0000 1.0000
v 0.079375 0.079375 2.389434 1.0000 1.0000 1.0000
v 0.238125 0.079375 0.000000 1.0000 1.0000 1.0000
v 0.238125 0.079375 2.389434 1.0000 1.0000 1.0000
v 0.238125 0.079375 0.000000 1.0000 1.0000 1.0000
v 0.238125 0.079375 2.389434 1.0000 1.0000 1.0000
v 0.238125 -0.079375 0.000000 1.0000 1.0000 1.0000
v 0.238125 -0.079375 2.389434 1.0000 1.0000 1.0000
v 0.079375 -0.079375 2.389434 1.0000 1.0000 1.0000
v 0.238125 -0.079375 2.389434 1.0000 1.0000 1.0000
v 0.238125 0.079375 2.389434 1.0000 1.0000 1.0000
v 0.079375 0.079375 2.389434 1.0000 1.0000 1.0000
v 0.079375 -0.079375 0.000000 1.0000 1.0000 1.0000
v 0.079375 0.079375 0.000000 1.0000 1.0000 1.0000
v 0.238125 -0.079375 0.000000 1.0000 1.0000 1.0000
v 0.238125 0.079375 0.000000 1.0000 1.0000 1.0000
v -0.238125 -0.079375 2.389434 1.0000 1.0000 1.0000
v -0.238125 -0.079375 0.000000 1.0000 1.0000 1.0000
v -0.079375 -0.079375 2.389434 1.0000 1.0000 1.0000
v -0.079375 -0.079375 0.000000 1.0000 1.0000 1.0000
v -0.238125 -0.079375 2.389434 1.0000 1.0000 1.0000
v -0.238125 0.079375 0.000000 1.0000 1.0000 1.0000
v -0.238125 -0.079375 0.000000 1.0000 1.0000 1.0000
v -0.238125 0.079375 2.389434 1.0000 1.0000 1.0000
v -0.238125 0.079375 0.000000 1.0000 1.0000 1.0000
v -0.238125 0.079375 2.389434 1.0000 1.0000 1.0000
v -0.079375 0.079375 0.000000 1.0000 1.0000 1.0000
v -0.079375 0.079375 2.389434 1.0000 1.0000 1.0000
v -0.079375 0.079375 0.000000 1.0000 1.0000 1.0000
v -0.079375 0.079375 2.389434 1.0000 1.0000 1.0000
v -0.079375 -0.079375 0.000000 1.0000 1.0000 1.0000
v -0.079375 -0.079375 2.389434 1.0000 1.0000 1.0000
v -0.238125 -0.079375 2.389434 1.0000 1.0000 1.0000
v -0.079375 -0.079375 2.389434 1.0000 1.0000 1.0000
v -0.079375 0.079375 2.389434 1.0000 1.0000 1.0000
v -0.238125 0.079375 2.389434 1.0000 1.0000 1.0000
v -0.238125 -0.079375 0.000000 1.0000 1.0000 1.0000
v -0.238125 0.079375 0.000000 1.0000 1.0000 1.0000
v -0.079375 -0.079375 0.000000 1.0000 1.0000 1.0000
v -0.079375 0.079375 0.000000 1.0000 1.0000 1.0000
v 0.317500 -0.158750 3.333750 1.0000 1.0000 1.0000
v -0.317500 -0.158750 3.333750 1.0000 1.0000 1.0000
v -0.317500 -0.158750 2.381250 1.0000 1.0000 1.0000
v 0.317500 -0.158750 2.381250 1.0000 1.0000 1.0000
v -0.317500 -0.158750 3.333750 1.0000 1.0000 1.0000
v -0.317500 0.158750 2.381250 1.0000 1.0000 1.0000
v -0.317500 -0.158750 2.381250 1.0000 1.0000 1.0000
v -0.317500 0.158750 3.333750 1.0000 1.0000 1.0000
v -0.317500 0.158750 3.333750 1.0000 1.0000 1.0000
v 0.317500 0.158750 2.381250 1.0000 1.0000 1.0000
v -0.317500 0.158750 2.381250 1.0000 1.0000 1.0000
v 0.317500 0.158750 3.333750 1.0000 1.0000 1.0000
v 0.317500 0.158750 2.381250 1.0000 1.0000 1.0000
v 0.317500 0.158750 3.333750 1.0000 1.0000 1.0000
v 0.317500 -0.158750 2.381250 1.0000 1.0000 1.0000
v 0.317500 -0.158750 3.333750 1.0000 1.0000 1.0000
v -0.317500 -0.158750 3.333750 1.0000 1.0000 1.0000
v 0.317500 -0.158750 3.333750 1.0000 1.0000 1.0000
v 0.317500 0.158750 3.333750 1.0000 1.0000 1.0000
v -0.317500 0.158750 3.333750 1.0000 1.0000 1.0000
v 0.317500 -0.158750 2.381250 1.0000 1.0000 1.0000
v -0.317500 -0.158750 2.381250 1.0000 1.0000 1.0000
v -0.317500 0.158750 2.381250 1.0000 1.0000 1.0000
v 0.317500 0.158750 2.381250 1.0000 1.0000 1.0000
v -0.318114 0.318114 3.333750 1.0000 1.0000 1.0000
v -0.318209 0.318209 3.969459 1.0000 1.0000 1.0000
v 0.318114 0.318114 3.333750 1.0000 1.0000 1.0000
v 0.318209 0.318209 3.969459 1.0000 1.0000 1.0000
v -0.318209 -0.318209 3.969459 1.0000 1.0000 1.0000
v 0.318209 -0.318209 3.969459 1.0000 1.0000 1.0000
v 0.318209 0.318209 3.969459 1.0000 1.0000 1.0000
v -0.318209 0.318209 3.969459 1.0000 1.0000 1.0000
v 0.318209 -0.318209 3.969459 1.0000 1.0000 1.0000
v -0.318209 -0.318209 3.969459 1.0000 1.0000 1.0000
v -0.318114 -0.318114 3.491132 1.0000 1.0000 1.0000
v 0.318114 -0.318114 3.491132 1.0000 1.0000 1.0000
v -0.278182 0.278182 3.333381 1.0000 1.0000 1.0000
v 0.278182 -0.278182 3.333381 1.0000 1.0000 1.0000
v -0.278182 -0.278182 3.333381 1.0000 1.0000 1.0000
v 0.278182 0.278182 3.333381 1.0000 1.0000 1.0000
v 0.317500 -0.079375 3.333750 1.0000 1.0000 1.0000
v 0.317500 -0.079375 0.952500 1.0000 1.0000 1.0000
v 0.476250 -0.079375 3.333750 1.0000 1.0000 1.0000
v 0.476250 -0.079375 0.952500 1.0000 1.0000 1.0000
v 0.317500 -0.079375 3.333750 1.0000 1.0000 1.0000
v 0.317500 0.079375 0.952500 1.0000 1.0000 1.0000
v 0.317500 -0.079375 0.952500 1.0000 1.0000 1.0000
v 0.317500 0.079375 3.333750 1.0000 1.0000 1.0000
v 0.317500 0.079375 0.952500 1.0000 1.0000 1.0000
v 0.317500 0.079375 3.333750 1.0000 1.0000 1.0000
v 0.476250 0.079375 0.952500 1.0000 1.0000 1.0000
v 0.476250 0.079375 3.333750 1.0000 1.0000 1.0000
v 0.476250 0.079375 0.952500 1.0000 1.0000 1.0000
v 0.476250 0.079375 3.333750 1.0000 1.0000 1.0000
v 0.476250 -0.079375 0.952500 1.0000 1.0000 1.0000
v 0.476250 -0.079375 3.333750 1.0000 1.0000 1.0000
v 0.317500 -0.079375 3.333750 1.0000 1.0000 1.0000
v 0.476250 -0.079375 3.333750 1.0000 1.0000 1.0000
v 0.476250 0.079375 3.333750 1.0000 1.0000 1.0000
v 0.317500 0.079375 3.333750 1.0000 1.0000 1.0000
v 0.317500 -0.079375 0.952500 1.0000 1.0000 1.0000
v 0.317500 0.079375 0.952500 1.0000 1.0000 1.0000
v 0.476250 -0.079375 0.952500 1.0000 1.0000 1.0000
v 0.476250 0.079375 0.952500 1.0000 1.0000 1.0000
v -0.476250 -0.079375 3.333750 1.0000 1.0000 1.0000
v -0.476250 -0.079375 0.952500 1.0000 1.0000 1.0000
v -0.317500 -0.079375 3.333750 1.0000 1.0000 1.0000
v -0.317500 -0.079375 0.952500 1.0000 1.0000 1.0000
v -0.476250 -0.079375 3.333750 1.0000 1.0000 1.0000
v -0.476250 0.079375 0.952500 1.0000 1.0000 1.0000
v -0.476250 -0.079375 0.952500 1.0000 1.0000 1.0000
v -0.476250 0.079375 3.333750 1.0000 1.0000 1.0000
v -0.476250 0.079375 0.952500 1.0000 1.0000 1.0000
v -0.476250 0.079375 3.333750 1.0000 1.0000 1.0000
v -0.317500 0.079375 0.952500 1.0000 1.0000 1.0000
v -0.317500 0.079375 3.333750 1.0000 1.0000 1.0000
v -0.317500 0.079375 0.952500 1.0000 1.0000 1.0000
v -0.317500 0.079375 3.333750 1.0000 1.0000 1.0000
v -0.317500 -0.079375 0.952500 1.0000 1.0000 1.0000
v -0.317500 -0.079375 3.333750 1.0000 1.0000 1.0000
v -0.476250 -0.079375 3.333750 1.0000 1.0000 1.0000
v -0.317500 -0.079375 3.333750 1.0000 1.0000 1.0000
v -0.317500 0.079375 3.333750 1.0000 1.0000 1.0000
v -0.476250 0.079375 3.333750 1.0000 1.0000 1.0000
v -0.476250 -0.079375 0.952500 1.0000 1.0000 1.0000
v -0.476250 0.079375 0.952500 1.0000 1.0000 1.0000
v -0.317500 -0.079375 0.952500 1.0000 1.0000 1.0000
v -0.317500 0.079375 0.952500 1.0000 1.0000 1.0000
v -0.316487 0.316624 3.967484 1.0000 1.0000 1.0000
v 0.316393 0.316529 3.335213 1.0000 1.0000 1.0000
v 0.316487 0.316624 3.967484 1.0000 1.0000 1.0000
v -0.316393 0.316529 3.335213 1.0000 1.0000 1.0000
v -0.316487 -0.316351 3.967484 1.0000 1.0000 1.0000
v 0.316487 0.316624 3.967484 1.0000 1.0000 1.0000
v 0.316487 -0.316351 3.967484 1.0000 1.0000 1.0000
v -0.316487 0.316624 3.967484 1.0000 1.0000 1.0000
v 0.316393 -0.316257 3.491744 1.0000 1.0000 1.0000
v -0.316393 -0.316257 3.491744 1.0000 1.0000 1.0000
v 0.316487 -0.316351 3.967484 1.0000 1.0000 1.0000
v -0.316487 -0.316351 3.967484 1.0000 1.0000 1.0000
v -0.276677 -0.276486 3.334707 1.0000 1.0000 1.0000
v 0.276677 -0.276486 3.334707 1.0000 1.0000 1.0000
v -0.276677 0.276868 3.334707 1.0000 1.0000 1.0000
v 0.276677 0.276868 3.334707 1.0000 1.0000 1.0000
v 0.278132 -0.278132 3.542109 1.0000 1.0000 1.0000
v 0.208568 -0.278452 3.542109 1.0000 1.0000 1.0000
v 0.208568 -0.278452 3.472656 1.0000 1.0000 1.0000
v 0.278182 -0.278182 3.333381 1.0000 1.0000 1.0000
v 0.070423 -0.278452 3.472656 1.0000 1.0000 1.0000
v -0.069274 -0.278452 3.472656 1.0000 1.0000 1.0000
v 0.070423 -0.278452 3.542109 1.0000 1.0000 1.0000
v -0.069274 -0.278452 3.542109 1.0000 1.0000 1.0000
v -0.278182 -0.278182 3.333381 1.0000 1.0000 1.0000
v -0.208892 -0.278452 3.472656 1.0000 1.0000 1.0000
v -0.278132 -0.278132 3.542109 1.0000 1.0000 1.0000
v -0.208892 -0.278452 3.542109 1.0000 1.0000 1.0000
v 0.278452 0.138906 3.889375 1.0000 1.0000 1.0000
v 0.278452 0.138906 3.819973 1.0000 1.0000 1.0000
v 0.278452 0.208359 3.819973 1.0000 1.0000 1.0000
v 0.278132 0.278132 3.889375 1.0000 1.0000 1.0000
v 0.278452 0.208359 3.472656 1.0000 1.0000 1.0000
v 0.278182 0.278182 3.333381 1.0000 1.0000 1.0000
v 0.278452 0.138906 3.403203 1.0000 1.0000 1.0000
v 0.278452 0.138906 3.472656 1.0000 1.0000 1.0000
v 0.278452 0.000000 3.403203 1.0000 1.0000 1.0000
v 0.278182 -0.278182 3.333381 1.0000 1.0000 1.0000
v 0.278452 -0.208962 3.472656 1.0000 1.0000 1.0000
v 0.278452 0.000000 3.472656 1.0000 1.0000 1.0000
v 0.278132 -0.278132 3.542109 1.0000 1.0000 1.0000
v 0.278452 -0.277813 3.611562 1.0000 1.0000 1.0000
v 0.278452 -0.208962 3.611562 1.0000 1.0000 1.0000
v -0.139083 0.278452 3.889375 1.0000 1.0000 1.0000
v -0.139083 0.278452 3.819973 1.0000 1.0000 1.0000
v -0.208892 0.278452 3.819973 1.0000 1.0000 1.0000
v -0.278132 0.278132 3.889375 1.0000 1.0000 1.0000
v -0.208892 0.278452 3.542109 1.0000 1.0000 1.0000
v -0.278182 0.278182 3.333381 1.0000 1.0000 1.0000
v -0.139083 0.278452 3.472656 1.0000 1.0000 1.0000
v -0.139083 0.278452 3.542109 1.0000 1.0000 1.0000
v 0.278182 0.278182 3.333381 1.0000 1.0000 1.0000
v 0.139495 0.278452 3.472656 1.0000 1.0000 1.0000
v 0.208568 0.278452 3.542109 1.0000 1.0000 1.0000
v 0.139495 0.278452 3.542109 1.0000 1.0000 1.0000
v 0.278132 0.278132 3.889375 1.0000 1.0000 1.0000
v 0.208568 0.278452 3.819973 1.0000 1.0000 1.0000
v 0.139495 0.278452 3.889375 1.0000 1.0000 1.0000
v 0.139495 0.278452 3.819973 1.0000 1.0000 1.0000
v -0.276627 -0.276437 3.542306 1.0000 1.0000 1.0000
v -0.207762 -0.276755 3.542306 1.0000 1.0000 1.0000
v -0.207762 -0.276755 3.473228 1.0000 1.0000 1.0000
v -0.276677 -0.276486 3.334707 1.0000 1.0000 1.0000
v -0.068899 -0.276755 3.473228 1.0000 1.0000 1.0000
v 0.276677 -0.276486 3.334707 1.0000 1.0000 1.0000
v 0.070042 -0.276755 3.542306 1.0000 1.0000 1.0000
v -0.068899 -0.276755 3.542306 1.0000 1.0000 1.0000
v 0.070042 -0.276755 3.473228 1.0000 1.0000 1.0000
v 0.207440 -0.276755 3.473228 1.0000 1.0000 1.0000
v 0.276628 -0.276437 3.542306 1.0000 1.0000 1.0000
v 0.207440 -0.276755 3.542306 1.0000 1.0000 1.0000
v -0.276945 0.138346 3.887693 1.0000 1.0000 1.0000
v -0.276945 0.138346 3.818666 1.0000 1.0000 1.0000
v -0.276945 0.207423 3.818666 1.0000 1.0000 1.0000
v -0.276627 0.276819 3.887693 1.0000 1.0000 1.0000
v -0.276945 0.207423 3.473228 1.0000 1.0000 1.0000
v -0.276677 0.276868 3.334707 1.0000 1.0000 1.0000
v -0.276945 0.138346 3.473228 1.0000 1.0000 1.0000
v -0.276945 0.138346 3.404151 1.0000 1.0000 1.0000
v -0.276945 0.000191 3.404151 1.0000 1.0000 1.0000
v -0.276677 -0.276486 3.334707 1.0000 1.0000 1.0000
v -0.276945 -0.207641 3.473228 1.0000 1.0000 1.0000
v -0.276945 0.000191 3.473228 1.0000 1.0000 1.0000
v -0.276627 -0.276437 3.542306 1.0000 1.0000 1.0000
v -0.276945 -0.276119 3.611383 1.0000 1.0000 1.0000
v -0.276945 -0.207641 3.611383 1.0000 1.0000 1.0000
v 0.138741 0.277137 3.887693 1.0000 1.0000 1.0000
v 0.138741 0.277137 3.818666 1.0000 1.0000 1.0000
v 0.207440 0.277137 3.818666 1.0000 1.0000 1.0000
v 0.276628 0.276819 3.887693 1.0000 1.0000 1.0000
v 0.207440 0.277137 3.542306 1.0000 1.0000 1.0000
v 0.276677 0.276868 3.334707 1.0000 1.0000 1.0000
v 0.138741 0.277137 3.542306 1.0000 1.0000 1.0000
v 0.138741 0.277137 3.473228 1.0000 1.0000 1.0000
v -0.138330 0.277137 3.473228 1.0000 1.0000 1.0000
v -0.276677 0.276868 3.334707 1.0000 1.0000 1.0000
v -0.207762 0.277137 3.542306 1.0000 1.0000 1.0000
v -0.138330 0.277137 3.542306 1.0000 1.0000 1.0000
v -0.276627 0.276819 3.887693 1.0000 1.0000 1.0000
v -0.207762 0.277137 3.818666 1.0000 1.0000 1.0000
v -0.138330 0.277137 3.887693 1.0000 1.0000 1.0000
v -0.138330 0.277137 3.818666 1.0000 1.0000 1.0000
v -0.278452 0.138906 3.889375 1.0000 1.0000 1.0000
v -0.278452 0.208359 3.819973 1.0000 1.0000 1.0000
v -0.278452 0.138906 3.819973 1.0000 1.0000 1.0000
v -0.278132 0.278132 3.889375 1.0000 1.0000 1.0000
v -0.278452 0.208359 3.472656 1.0000 1.0000 1.0000
v -0.278182 0.278182 3.333381 1.0000 1.0000 1.0000
v -0.278452 0.138906 3.403203 1.0000 1.0000 1.0000
v -0.278452 0.138906 3.472656 1.0000 1.0000 1.0000
v -0.278452 0.000000 3.403203 1.0000 1.0000 1.0000
v -0.278182 -0.278182 3.333381 1.0000 1.0000 1.0000
v -0.278452 -0.208962 3.472656 1.0000 1.0000 1.0000
v -0.278452 0.000000 3.472656 1.0000 1.0000 1.0000
v -0.278132 -0.278132 3.542109 1.0000 1.0000 1.0000
v -0.278452 -0.277813 3.611562 1.0000 1.0000 1.0000
v -0.278452 -0.208962 3.611562 1.0000 1.0000 1.0000
v 0.276946 0.138346 3.887693 1.0000 1.0000 1.0000
v 0.276946 0.207423 3.818666 1.0000 1.0000 1.0000
v 0.276946 0.138346 3.818666 1.0000 1.0000 1.0000
v 0.276628 0.276819 3.887693 1.0000 1.0000 1.0000
v 0.276946 0.207423 3.473228 1.0000 1.0000 1.0000
v 0.276677 0.276868 3.334707 1.0000 1.0000 1.0000
v 0.276946 0.138346 3.404151 1.0000 1.0000 1.0000
v 0.276946 0.138346 3.473228 1.0000 1.0000 1.0000
v 0.276946 0.000191 3.404151 1.0000 1.0000 1.0000
v 0.276677 -0.276486 3.334707 1.0000 1.0000 1.0000
v 0.276946 -0.207641 3.473228 1.0000 1.0000 1.0000
v 0.276946 0.000191 3.473228 1.0000 1.0000 1.0000
v 0.276628 -0.276437 3.542306 1.0000 1.0000 1.0000
v 0.276946 -0.276119 3.611383 1.0000 1.0000 1.0000
v 0.276946 -0.207641 3.611383 1.0000 1.0000 1.0000
v -0.318114 0.318114 3.333750 1.0000 1.0000 1.0000
v -0.318728 0.000000 3.335332 1.0000 1.0000 1.0000
v -0.318728 0.000000 3.412335 1.0000 1.0000 1.0000
v -0.318209 0.318209 3.969459 1.0000 1.0000 1.0000
v -0.318209 -0.318209 3.969459 1.0000 1.0000 1.0000
v -0.318114 -0.318114 3.491132 1.0000 1.0000 1.0000
v -0.318728 -0.317500 3.412335 1.0000 1.0000 1.0000
v 0.318728 0.000000 3.412335 1.0000 1.0000 1.0000
v 0.318728 0.000000 3.335332 1.0000 1.0000 1.0000
v 0.318114 0.318114 3.333750 1.0000 1.0000 1.0000
v 0.318209 0.318209 3.969459 1.0000 1.0000 1.0000
v 0.318209 -0.318209 3.969459 1.0000 1.0000 1.0000
v 0.318114 -0.318114 3.491132 1.0000 1.0000 1.0000
v 0.318728 -0.317500 3.412335 1.0000 1.0000 1.0000
v -0.316393 -0.316257 3.491744 1.0000 1.0000 1.0000
v -0.317004 -0.315646 3.413373 1.0000 1.0000 1.0000
v -0.317004 0.000136 3.413373 1.0000 1.0000 1.0000
v -0.316487 -0.316351 3.967484 1.0000 1.0000 1.0000
v -0.316487 0.316624 3.967484 1.0000 1.0000 1.0000
v -0.316393 0.316529 3.335213 1.0000 1.0000 1.0000
v -0.317004 0.000136 3.336795 1.0000 1.0000 1.0000
v 0.317004 -0.315646 3.413373 1.0000 1.0000 1.0000
v 0.316393 -0.316257 3.491744 1.0000 1.0000 1.0000
v 0.317004 0.000136 3.413373 1.0000 1.0000 1.0000
v 0.316487 -0.316351 3.967484 1.0000 1.0000 1.0000
v 0.316487 0.316624 3.967484 1.0000 1.0000 1.0000
v 0.316393 0.316529 3.335213 1.0000 1.0000 1.0000
v 0.317004 0.000136 3.336795 1.0000 1.0000 1.0000
vn -0.0000 -1.0000 -0.0000
vn -1.0000 -0.0000 -0.0000
vn -0.0000 1.0000 -0.0000
vn 1.0000 -0.0000 -0.0000
vn -0.0000 -0.0000 1.0000
vn -0.0000 -0.0000 -1.0000
vn -0.0000 1.0000 -0.0001
vn -0.0000 -1.0000 -0.0002
vn -0.0000 -1.0000 0.0001
vn -0.0000 1.0000 0.0002
vn 0.0045 -1.0000 0.0001
vn 0.0046 -1.0000 -0.0000
vn 0.0025 -1.0000 -0.0007
vn 0.0013 -1.0000 -0.0013
vn -0.0000 -1.0000 -0.0013
vn -0.0013 -1.0000 -0.0013
vn -0.0025 -1.0000 -0.0007
vn -0.0045 -1.0000 0.0001
vn -0.0046 -1.0000 -0.0000
vn 1.0000 0.0011 0.0011
vn 1.0000 0.0031 0.0008
vn 1.0000 0.0034 0.0012
vn 1.0000 0.0027 -0.0003
vn 1.0000 0.0017 -0.0016
vn 1.0000 0.0003 -0.0025
vn 1.0000 -0.0001 -0.0026
vn 1.0000 -0.0016 -0.0015
vn 1.0000 -0.0026 -0.0008
vn 1.0000 -0.0080 -0.0034
vn 1.0000 -0.0027 -0.0013
vn -0.0011 1.0000 0.0012
vn -0.0031 1.0000 0.0008
vn -0.0034 1.0000 0.0012
vn -0.0027 1.0000 -0.0002
vn -0.0011 1.0000 -0.0012
vn -0.0003 1.0000 -0.0013
vn 0.0011 1.0000 -0.0012
vn 0.0003 1.0000 -0.0013
vn 0.0027 1.0000 -0.0002
vn 0.0034 1.0000 0.0012
vn 0.0031 1.0000 0.0008
vn 0.0012 1.0000 0.0012
vn 0.0045 1.0000 -0.0001
vn 0.0046 1.0000 -0.0000
vn 0.0025 1.0000 0.0007
vn 0.0013 1.0000 0.0013
vn -0.0000 1.0000 0.0013
vn -0.0013 1.0000 0.0013
vn -0.0025 1.0000 0.0007
vn -0.0045 1.0000 -0.0001
vn -0.0046 1.0000 -0.0000
vn 1.0000 -0.0011 -0.0011
vn 1.0000 -0.0031 -0.0008
vn 1.0000 -0.0034 -0.0012
vn 1.0000 -0.0027 0.0003
vn 1.0000 -0.0017 0.0016
vn 1.0000 -0.0003 0.0025
vn 1.0000 0.0001 0.0026
vn 1.0000 0.0016 0.0015
vn 1.0000 0.0026 0.0008
vn 1.0000 0.0080 0.0034
vn 1.0000 0.0027 0.0013
vn -0.0012 -1.0000 -0.0012
vn -0.0031 -1.0000 -0.0008
vn -0.0034 -1.0000 -0.0012
vn -0.0027 -1.0000 0.0002
vn -0.0011 -1.0000 0.0012
vn -0.0003 -1.0000 0.0013
vn 0.0003 -1.0000 0.0013
vn 0.0011 -1.0000 0.0012
vn 0.0027 -1.0000 0.0002
vn 0.0034 -1.0000 -0.0012
vn 0.0031 -1.0000 -0.0008
vn 0.0011 -1.0000 -0.0012
vn -1.0000 0.0011 0.0011
vn -1.0000 0.0031 0.0008
vn -1.0000 0.0034 0.0012
vn -1.0000 0.0027 -0.0003
vn -1.0000 0.0017 -0.0016
vn -1.0000 0.0003 -0.0025
vn -1.0000 -0.0001 -0.0026
vn -1.0000 -0.0016 -0.0015
vn -1.0000 -0.0026 -0.0008
vn -1.0000 -0.0080 -0.0034
vn -1.0000 -0.0027 -0.0013
vn -1.0000 -0.0011 -0.0011
vn -1.0000 -0.0031 -0.0008
vn -1.0000 -0.0034 -0.0012
vn -1.0000 -0.0027 0.0003
vn -1.0000 -0.0017 0.0016
vn -1.0000 -0.0003 0.0025
vn -1.0000 0.0001 0.0026
vn -1.0000 0.0016 0.0015
vn -1.0000 0.0026 0.0008
vn -1.0000 0.0080 0.0034
vn -1.0000 0.0027 0.0013
vn -1.0000 0.0019 -0.0001
vn -1.0000 0.0019 -0.0000
vn -1.0000 0.0007 0.0005
vn -1.0000 0.0006 0.0006
vn -1.0000 -0.0007 0.0006
vn -1.0000 -0.0011 0.0032
vn -1.0000 -0.0000 0.0078
vn 1.0000 0.0007 0.0005
vn 1.0000 0.0019 -0.0000
vn 1.0000 0.0019 -0.0001
vn 1.0000 0.0006 0.0006
vn 1.0000 -0.0007 0.0006
vn 1.0000 -0.0011 0.0032
vn 1.0000 -0.0000 0.0078
vn 1.0000 0.0011 -0.0032
vn 1.0000 -0.0000 -0.0078
vn 1.0000 -0.0007 -0.0005
vn 1.0000 0.0007 -0.0006
vn 1.0000 -0.0006 -0.0006
vn 1.0000 -0.0019 0.0001
vn 1.0000 -0.0019 -0.0000
vn -1.0000 -0.0000 -0.0078
vn -1.0000 0.0011 -0.0032
vn -1.0000 -0.0007 -0.0005
vn -1.0000 0.0007 -0.0006
vn -1.0000 -0.0006 -0.0006
vn -1.0000 -0.0019 0.0001
vn -1.0000 -0.0019 -0.0000
vt 0.937500 0.968750
vt 0.937500 0.500000
vt 0.906250 0.968750
vt 0.906250 0.500000
vt 0.953125 0.484375
vt 0.984375 0.015625
vt 0.953125 0.015625
vt 0.984375 0.484375
vt 0.953125 0.500000
vt 0.953125 0.968750
vt 0.984375 0.500000
vt 0.984375 0.968750
vt 0.906250 0.015625
vt 0.906250 0.484375
vt 0.937500 0.015625
vt 0.937500 0.484375
vt 0.843750 0.937500
vt 0.812500 0.937500
vt 0.812500 0.968750
vt 0.843750 0.968750
vt 0.890625 0.937500
vt 0.890625 0.968750
vt 0.859375 0.937500
vt 0.859375 0.968750
vt 0.734375 0.843750
vt 0.609375 0.843750
vt 0.609375 0.656250
vt 0.734375 0.656250
vt 0.812500 0.640625
vt 0.750000 0.453125
vt 0.812500 0.453125
vt 0.750000 0.640625
vt 0.890625 0.843750
vt 0.765625 0.656250
vt 0.890625 0.656250
vt 0.765625 0.843750
vt 0.890625 0.453125
vt 0.890625 0.640625
vt 0.828125 0.453125
vt 0.828125 0.640625
vt 0.609375 0.859375
vt 0.734375 0.859375
vt 0.734375 0.921875
vt 0.609375 0.921875
vt 0.890625 0.859375
vt 0.765625 0.859375
vt 0.765625 0.921875
vt 0.890625 0.921875
vt 0.578125 0.859375
vt 0.578125 0.984375
vt 0.453125 0.859375
vt 0.453125 0.984375
vt 0.171875 0.859497
vt 0.296875 0.859497
vt 0.296875 0.984512
vt 0.171875 0.984512
vt 0.437500 0.843872
vt 0.312500 0.843872
vt 0.312500 0.749756
vt 0.437500 0.749756
vt 0.453125 0.843750
vt 0.578125 0.718750
vt 0.453125 0.718750
vt 0.578125 0.843750
vt 0.296875 0.625000
vt 0.281250 0.625000
vt 0.281250 0.609375
vt 0.296875 0.578125
vt 0.250244 0.609375
vt 0.218750 0.609375
vt 0.250244 0.625000
vt 0.218750 0.625000
vt 0.171875 0.578125
vt 0.187378 0.609375
vt 0.171875 0.625000
vt 0.187378 0.625000
vt 0.406250 0.703125
vt 0.406250 0.687500
vt 0.421875 0.687500
vt 0.437500 0.703125
vt 0.421875 0.609375
vt 0.437500 0.578125
vt 0.406250 0.593750
vt 0.406250 0.609375
vt 0.375000 0.593750
vt 0.312500 0.578125
vt 0.327881 0.609375
vt 0.375000 0.609375
vt 0.312500 0.625000
vt 0.312500 0.640625
vt 0.327881 0.640625
vt 0.546875 0.703125
vt 0.546875 0.687500
vt 0.562500 0.687500
vt 0.578125 0.703125
vt 0.562500 0.625000
vt 0.578125 0.578125
vt 0.546875 0.609375
vt 0.546875 0.625000
vt 0.453125 0.578125
vt 0.484131 0.609375
vt 0.468750 0.625000
vt 0.484131 0.625000
vt 0.453125 0.703125
vt 0.468750 0.687500
vt 0.484131 0.703125
vt 0.484131 0.687500
vt 0.062500 0.703125
vt 0.062500 0.687500
vt 0.046875 0.687500
vt 0.031250 0.703125
vt 0.046875 0.609375
vt 0.031250 0.578125
vt 0.062500 0.609375
vt 0.062500 0.593750
vt 0.093750 0.593750
vt 0.156250 0.578125
vt 0.140747 0.609375
vt 0.093750 0.609375
vt 0.156250 0.625000
vt 0.156250 0.640625
vt 0.140747 0.640625
vt 0.031250 0.859375
vt 0.093750 0.859375
vt 0.093750 0.875610
vt 0.031250 0.984375
vt 0.156250 0.984375
vt 0.156250 0.890381
vt 0.156250 0.875610
vt 0.375000 0.875610
vt 0.375000 0.859375
vt 0.437500 0.859375
vt 0.437500 0.984375
vt 0.312500 0.984375
vt 0.312500 0.890381
vt 0.312500 0.875610
s 1
usemtl M_Extnd04_Object_04004_Body_L_Inst
f 1/1/1 2/2/1 3/3/1
f 3/3/1 2/2/1 4/4/1
f 5/5/2 6/6/2 7/7/2
f 6/6/2 5/5/2 8/8/2
f 9/9/3 10/10/3 11/11/3
f 11/11/3 10/10/3 12/12/3
f 13/13/4 14/14/4 15/15/4
f 16/16/4 15/15/4 14/14/4
f 17/17/5 18/18/5 19/19/5
f 17/17/5 19/19/5 20/20/5
f 21/21/6 22/22/6 23/23/6
f 23/23/6 22/22/6 24/24/6
f 25/3/1 26/4/1 27/1/1
f 27/1/1 26/4/1 28/2/1
f 29/16/2 30/13/2 31/15/2
f 30/13/2 29/16/2 32/14/2
f 33/11/3 34/12/3 35/9/3
f 35/9/3 34/12/3 36/10/3
f 37/6/4 38/8/4 39/7/4
f 40/5/4 39/7/4 38/8/4
f 41/18/5 42/17/5 43/20/5
f 41/18/5 43/20/5 44/19/5
f 45/23/6 46/24/6 47/21/6
f 47/21/6 46/24/6 48/22/6
f 49/25/1 50/26/1 51/27/1
f 49/25/1 51/27/1 52/28/1
f 53/29/2 54/30/2 55/31/2
f 54/30/2 53/29/2 56/32/2
f 57/33/3 58/34/3 59/35/3
f 58/34/3 57/33/3 60/36/3
f 61/37/4 62/38/4 63/39/4
f 64/40/4 63/39/4 62/38/4
f 65/41/5 66/42/5 67/43/5
f 65/41/5 67/43/5 68/44/5
f 69/45/6 70/46/6 71/47/6
f 69/45/6 71/47/6 72/48/6
f 73/49/7 74/50/7 75/51/7
f 75/51/7 74/50/7 76/52/7
f 77/53/5 78/54/5 79/55/5
f 77/53/5 79/55/5 80/56/5
f 81/57/8 82/58/8 83/59/8
f 81/57/8 83/59/8 84/60/8
f 85/61/6 86/62/6 87/63/6
f 86/62/6 85/61/6 88/64/6
f 89/1/1 90/2/1 91/3/1
f 91/3/1 90/2/1 92/4/1
f 93/5/2 94/6/2 95/7/2
f 94/6/2 93/5/2 96/8/2
f 97/9/3 98/10/3 99/11/3
f 99/11/3 98/10/3 100/12/3
f 101/13/4 102/14/4 103/15/4
f 104/16/4 103/15/4 102/14/4
f 105/17/5 106/18/5 107/19/5
f 105/17/5 107/19/5 108/20/5
f 109/21/6 110/22/6 111/23/6
f 111/23/6 110/22/6 112/24/6
f 113/3/1 114/4/1 115/1/1
f 115/1/1 114/4/1 116/2/1
f 117/16/2 118/13/2 119/15/2
f 118/13/2 117/16/2 120/14/2
f 121/11/3 122/12/3 123/9/3
f 123/9/3 122/12/3 124/10/3
f 125/6/4 126/8/4 127/7/4
f 128/5/4 127/7/4 126/8/4
f 129/18/5 130/17/5 131/20/5
f 129/18/5 131/20/5 132/19/5
f 133/23/6 134/24/6 135/21/6
f 135/21/6 134/24/6 136/22/6
f 137/50/9 138/51/9 139/52/9
f 138/51/9 137/50/9 140/49/9
f 141/53/6 142/55/6 143/54/6
f 142/55/6 141/53/6 144/56/6
f 145/60/10 146/59/10 147/57/10
f 146/59/10 148/58/10 147/57/10
f 149/63/5 150/62/5 151/61/5
f 150/62/5 152/64/5 151/61/5
f 153/65/11 154/66/12 155/67/13
f 155/67/13 156/68/14 153/65/11
f 157/69/15 156/68/14 155/67/13
f 158/70/15 156/68/14 157/69/15
f 159/71/1 158/70/15 157/69/15
f 159/71/1 160/72/1 158/70/15
f 161/73/16 156/68/14 158/70/15
f 162/74/17 161/73/16 158/70/15
f 162/74/17 163/75/18 161/73/16
f 163/75/18 162/74/17 164/76/19
f 165/77/20 166/78/4 167/79/21
f 167/79/21 168/80/22 165/77/20
f 169/81/23 168/80/22 167/79/21
f 168/80/22 169/81/23 170/82/24
f 171/83/25 169/81/23 172/84/4
f 170/82/24 169/81/23 171/83/25
f 173/85/26 170/82/24 171/83/25
f 174/86/27 170/82/24 173/85/26
f 174/86/27 173/85/26 175/87/28
f 175/87/28 173/85/26 176/88/4
f 175/87/28 177/89/29 174/86/27
f 177/89/29 175/87/28 178/90/30
f 175/87/28 179/91/4 178/90/30
f 180/92/31 181/93/3 182/94/32
f 182/94/32 183/95/33 180/92/31
f 184/96/34 183/95/33 182/94/32
f 185/97/35 183/95/33 184/96/34
f 186/98/36 185/97/35 184/96/34
f 184/96/34 187/99/3 186/98/36
f 186/98/36 188/100/37 185/97/35
f 188/100/37 186/98/36 189/101/38
f 190/102/39 188/100/37 189/101/38
f 191/103/3 190/102/39 189/101/38
f 190/102/39 192/104/40 188/100/37
f 192/104/40 190/102/39 193/105/41
f 194/106/42 192/104/40 193/105/41
f 194/106/42 193/105/41 195/107/3
f 196/75/43 197/76/44 198/74/45
f 198/74/45 199/73/46 196/75/43
f 198/74/45 200/70/47 199/73/46
f 201/68/48 199/73/46 200/70/47
f 202/71/3 200/70/47 203/72/3
f 200/70/47 202/71/3 204/69/47
f 201/68/48 200/70/47 204/69/47
f 204/69/47 205/67/49 201/68/48
f 205/67/49 206/65/50 201/68/48
f 206/65/50 205/67/49 207/66/51
f 208/108/52 209/109/4 210/110/53
f 208/108/52 210/110/53 211/111/54
f 212/112/55 211/111/54 210/110/53
f 211/111/54 212/112/55 213/113/56
f 212/112/55 214/114/4 215/115/57
f 212/112/55 215/115/57 213/113/56
f 216/116/58 213/113/56 215/115/57
f 217/117/59 213/113/56 216/116/58
f 216/116/58 218/118/60 217/117/59
f 216/116/58 219/119/4 218/118/60
f 220/120/61 217/117/59 218/118/60
f 218/118/60 221/121/62 220/120/61
f 218/118/60 222/122/4 221/121/62
f 223/106/63 224/107/1 225/105/64
f 223/106/63 225/105/64 226/104/65
f 227/102/66 226/104/65 225/105/64
f 228/100/67 226/104/65 227/102/66
f 229/103/1 230/101/68 227/102/66
f 227/102/66 230/101/68 228/100/67
f 231/98/69 228/100/67 230/101/68
f 228/100/67 231/98/69 232/97/70
f 231/98/69 233/96/71 232/97/70
f 233/96/71 231/98/69 234/99/1
f 235/95/72 232/97/70 233/96/71
f 235/95/72 233/96/71 236/94/73
f 236/94/73 237/92/74 235/95/72
f 237/92/74 236/94/73 238/93/1
f 239/108/75 240/110/76 241/109/2
f 239/108/75 242/111/77 240/110/76
f 242/111/77 243/112/78 240/110/76
f 243/112/78 242/111/77 244/113/79
f 243/112/78 245/115/80 246/114/2
f 243/112/78 244/113/79 245/115/80
f 244/113/79 247/116/81 245/115/80
f 247/116/81 244/113/79 248/117/82
f 247/116/81 248/117/82 249/118/83
f 247/116/81 249/118/83 250/119/2
f 248/117/82 251/120/84 249/118/83
f 252/121/85 249/118/83 251/120/84
f 249/118/83 252/121/85 253/122/2
f 254/77/86 255/79/87 256/78/2
f 255/79/87 254/77/86 257/80/88
f 257/80/88 258/81/89 255/79/87
f 258/81/89 257/80/88 259/82/90
f 260/83/91 261/84/2 258/81/89
f 259/82/90 260/83/91 258/81/89
f 259/82/90 262/85/92 260/83/91
f 259/82/90 263/86/93 262/85/92
f 263/86/93 264/87/94 262/85/92
f 264/87/94 265/88/2 262/85/92
f 264/87/94 263/86/93 266/89/95
f 267/90/96 264/87/94 266/89/95
f 264/87/94 267/90/96 268/91/2
f 269/123/97 270/124/98 271/125/99
f 272/126/100 269/123/97 271/125/99
f 271/125/99 273/127/101 272/126/100
f 273/127/101 271/125/99 274/128/102
f 274/128/102 271/125/99 275/129/103
f 276/130/104 277/131/105 278/132/106
f 276/130/104 278/132/106 279/133/107
f 280/134/108 276/130/104 279/133/107
f 276/130/104 280/134/108 281/135/109
f 282/136/110 276/130/104 281/135/109
f 283/128/111 284/129/112 285/125/113
f 285/125/113 286/127/114 283/128/111
f 286/127/114 285/125/113 287/126/115
f 287/126/115 285/125/113 288/123/116
f 288/123/116 285/125/113 289/124/117
f 290/136/118 291/135/119 292/130/120
f 293/134/121 292/130/120 291/135/119
f 293/134/121 294/133/122 292/130/120
f 292/130/120 294/133/122 295/132/123
f 292/130/120 295/132/123 296/131/124
